HIERARCHY
ROOT hip
{
  OFFSET 0 0 0
  CHANNELS 6 Xposition Yposition Zposition Zrotation Yrotation Xrotation
  JOINT abdomen
  {
    OFFSET 0 20.6881 -0.73152
    CHANNELS 3 Zrotation Xrotation Yrotation
    JOINT chest
    {
      OFFSET 0 11.7043 -0.48768
      CHANNELS 3 Zrotation Xrotation Yrotation
      JOINT neck
      {
        OFFSET 0 22.1894 -2.19456
        CHANNELS 3 Zrotation Xrotation Yrotation
        JOINT head
        {
          OFFSET -0.24384 7.07133 1.2192
          CHANNELS 3 Zrotation Xrotation Yrotation
          JOINT leftEye
          {
            OFFSET 4.14528 8.04674 8.04672
            CHANNELS 3 Zrotation Xrotation Yrotation
            End Site
            {
              OFFSET 1 0 0
            }
          }
          JOINT rightEye
          {
            OFFSET -3.6576 8.04674 8.04672
            CHANNELS 3 Zrotation Xrotation Yrotation
            End Site
            {
              OFFSET 1 0 0
            }
          }
        }
      }
      JOINT rCollar
      {
        OFFSET -2.68224 19.2634 -4.8768
        CHANNELS 3 Zrotation Xrotation Yrotation
        JOINT rShldr
        {
          OFFSET -8.77824 -1.95073 1.46304
          CHANNELS 3 Zrotation Xrotation Yrotation
          JOINT rForeArm
          {
            OFFSET -28.1742 -1.7115 0.48768
            CHANNELS 3 Zrotation Xrotation Yrotation
            JOINT rHand
            {
              OFFSET -22.5879 0.773209 7.07136
              CHANNELS 3 Zrotation Xrotation Yrotation
              JOINT rThumb1
              {
                OFFSET -1.2192 -0.487915 3.41376
                CHANNELS 3 Zrotation Xrotation Yrotation
                JOINT rThumb2
                {
                  OFFSET -3.37035 -0.52449 3.41376
                  CHANNELS 3 Zrotation Xrotation Yrotation
                  End Site
                  {
                    OFFSET -1.78271 -1.18214 1.43049
                  }
                }
              }
              JOINT rIndex1
              {
                OFFSET -7.75947 0.938293 5.60832
                CHANNELS 3 Zrotation Xrotation Yrotation
                JOINT rIndex2
                {
                  OFFSET -2.54057 -0.884171 1.56538
                  CHANNELS 3 Zrotation Xrotation Yrotation
                  End Site
                  {
                    OFFSET -1.62519 -0.234802 1.16502
                  }
                }
              }
              JOINT rMid1
              {
                OFFSET -8.24714 1.18213 3.41376
                CHANNELS 3 Zrotation Xrotation Yrotation
                JOINT rMid2
                {
                  OFFSET -3.10165 -0.590103 1.0647
                  CHANNELS 3 Zrotation Xrotation Yrotation
                  End Site
                  {
                    OFFSET -2.48547 -0.328903 0.83742
                  }
                }
              }
              JOINT rRing1
              {
                OFFSET -8.82822 0.546677 1.51678
                CHANNELS 3 Zrotation Xrotation Yrotation
                JOINT rRing2
                {
                  OFFSET -2.60934 -0.819778 -0.0198488
                  CHANNELS 3 Zrotation Xrotation Yrotation
                  End Site
                  {
                    OFFSET -2.33842 -0.294052 0.168128
                  }
                }
              }
              JOINT rPinky1
              {
                OFFSET -8.27202 -0.0477905 -0.4584
                CHANNELS 3 Zrotation Xrotation Yrotation
                JOINT rPinky2
                {
                  OFFSET -1.82734 -0.647385 -0.700984
                  CHANNELS 3 Zrotation Xrotation Yrotation
                  End Site
                  {
                    OFFSET -1.69225 -0.51767 -0.607171
                  }
                }
              }
            }
          }
        }
      }
      JOINT lCollar
      {
        OFFSET 2.68224 19.2634 -4.8768
        CHANNELS 3 Zrotation Xrotation Yrotation
        JOINT lShldr
        {
          OFFSET 8.77824 -1.95073 1.46304
          CHANNELS 3 Zrotation Xrotation Yrotation
          JOINT lForeArm
          {
            OFFSET 28.1742 -1.7115 0.48768
            CHANNELS 3 Zrotation Xrotation Yrotation
            JOINT lHand
            {
              OFFSET 22.5879 0.773209 7.07136
              CHANNELS 3 Zrotation Xrotation Yrotation
              JOINT lThumb1
              {
                OFFSET 1.2192 -0.487915 3.41376
                CHANNELS 3 Zrotation Xrotation Yrotation
                JOINT lThumb2
                {
                  OFFSET 3.37035 -0.52449 3.41376
                  CHANNELS 3 Zrotation Xrotation Yrotation
                  End Site
                  {
                    OFFSET 1.78271 -1.18214 1.43049
                  }
                }
              }
              JOINT lIndex1
              {
                OFFSET 7.75947 0.938293 5.60832
                CHANNELS 3 Zrotation Xrotation Yrotation
                JOINT lIndex2
                {
                  OFFSET 2.54057 -0.884171 1.56538
                  CHANNELS 3 Zrotation Xrotation Yrotation
                  End Site
                  {
                    OFFSET 1.62519 -0.234802 1.16502
                  }
                }
              }
              JOINT lMid1
              {
                OFFSET 8.24714 1.18213 3.41376
                CHANNELS 3 Zrotation Xrotation Yrotation
                JOINT lMid2
                {
                  OFFSET 3.10165 -0.590103 1.0647
                  CHANNELS 3 Zrotation Xrotation Yrotation
                  End Site
                  {
                    OFFSET 2.48547 -0.328903 0.83742
                  }
                }
              }
              JOINT lRing1
              {
                OFFSET 8.82822 0.546677 1.51678
                CHANNELS 3 Zrotation Xrotation Yrotation
                JOINT lRing2
                {
                  OFFSET 2.60934 -0.819778 -0.0198488
                  CHANNELS 3 Zrotation Xrotation Yrotation
                  End Site
                  {
                    OFFSET 2.33842 -0.294052 0.168128
                  }
                }
              }
              JOINT lPinky1
              {
                OFFSET 8.27202 -0.0477905 -0.4584
                CHANNELS 3 Zrotation Xrotation Yrotation
                JOINT lPinky2
                {
                  OFFSET 1.82734 -0.647385 -0.700984
                  CHANNELS 3 Zrotation Xrotation Yrotation
                  End Site
                  {
                    OFFSET 1.69225 -0.51767 -0.607171
                  }
                }
              }
            }
          }
        }
      }
    }
  }
  JOINT rButtock
  {
    OFFSET -8.77824 4.35084 1.2192
    CHANNELS 3 Zrotation Xrotation Yrotation
    JOINT rThigh
    {
      OFFSET 0 -1.70687 -2.19456
      CHANNELS 3 Zrotation Xrotation Yrotation
      JOINT rShin
      {
        OFFSET 0 -36.8199 0.73152
        CHANNELS 3 Zrotation Xrotation Yrotation
        JOINT rFoot
        {
          OFFSET 0.73152 -45.1104 -5.12064
          CHANNELS 3 Zrotation Xrotation Yrotation
          End Site
          {
            OFFSET -1.1221 -3.69964 12.103
          }
        }
      }
    }
  }
  JOINT lButtock
  {
    OFFSET 8.77824 4.35084 1.2192
    CHANNELS 3 Zrotation Xrotation Yrotation
    JOINT lThigh
    {
      OFFSET 0 -1.70687 -2.19456
      CHANNELS 3 Zrotation Xrotation Yrotation
      JOINT lShin
      {
        OFFSET 0 -36.8199 0.73152
        CHANNELS 3 Zrotation Xrotation Yrotation
        JOINT lFoot
        {
          OFFSET -0.73152 -45.1104 -5.12064
          CHANNELS 3 Zrotation Xrotation Yrotation
          End Site
          {
            OFFSET 1.1221 -3.69964 12.103
          }
        }
      }
    }
  }
}
MOTION
Frames:	4
Frame Time:	0.03333
-80.45648317784071 -0.9843582287430763 41.69875178486109 -0.9185784810966748 -1.568903203531803 -0.3871717277014058 1.2337062272064323 0.3177811145197488 -0.3176535287204871 2.0640216954753234 1.4115134469399067 1.407426645938712 0.5837851262625697 0.44762797320101005 1.8216447488146046 -0.7993035279509769 -0.1367695755701865 0.2127200518411118 -0.5890476802963587 1.1742192282387351 -0.1114381648467546 -1.0366058575017878 0.8095957692565399 -1.0679240891152944 -0.25388456143214727 0.6194715840154169 0.07017907314397032 -0.05223056330479329 -0.9577395841463545 1.5907129580470056 1.1383648972426939 -1.2874456219875638 0.6708252150638041 -0.025342776585097624 0.36189711960587606 1.9610574475110272 -1.1325191090868092 1.0509986669085913 0.07793926193858905 0.7798144369279918 -0.25847303449179426 0.09530659204850675 2.012359425253816 -1.2805716769181807 -0.7858641169027719 1.290546314427338 -1.287438258189865 0.14996608801603292 -0.9491419768068952 -1.401011604204189 0.32140570381320416 1.163270861886028 -0.3089364997922583 -0.19780798797482857 1.027220750695367 -0.16344944172659345 -0.7894184299529702 -0.4540138799098546 0.1403087341381638 -0.7607734169867301 0.29265637037956266 -0.1781468348816973 -0.13056701675187446 -1.389023448272053 0.2089846854170553 0.3758203268268148 -0.8614946414997644 1.1155148195395335 0.37492175674456146 -0.20177915600780919 -0.7998427927302906 0.7807278146469223 -0.21340968750387154 -2.0024308915215565 -0.3636867625705516 -1.2818800850310612 1.1458945404723981 1.9135658615514592 0.7698534064363215 -0.01964997399445067 -2.6369386033862274 -1.179369190872925 1.2658903987406498 1.103935621183952 -0.8813768952868484 0.6669174930849106 -0.33349308425129043 -0.14039984779447473 1.10352837115469 1.0859294282628 0.6492291174035758 1.6781332962859394 -2.2782181353942157 1.0280429347167073 -1.3999394779479084 -0.03850540488935845 -0.5125252290432978 1.91223034612531 0.9576174945149406 2.238633560615995 -0.5863790506824407 1.1942707426511885 2.6149268246819806 -0.7559109092670627 -0.42766874638363117 0.5526306057457316 0.8316576004407984 -1.2935702739606554 -2.0822459208413866 1.4422362781568587 -2.0073266430525747 1.0524185992040134 -1.3412454212541676 0.7850557533423302 -1.0344422883604805 -0.7906689949013171 -0.9417428542233616 1.9900955698805134 0.2870409410256073 0.5638049019495783 1.1194159247726685 -1.2917326329088046 -0.5024003273724001 -0.9331363889823223 -1.1514070367411273 0.935936553098616 -1.6509962076615383 -0.8194509851769277 1.3847138123491864 1.748173577851541 1.9915935157428617 -1.9147543144670414
-82.05289971083403 -0.9950518608093262 42.47963260859251 -0.9338380841978354 -1.5529013509669325 -0.3793195714768299 1.214679241169481 0.32100245584790893 -0.30750776295610915 2.0879329070990686 1.4124962471284481 1.4162038659090013 0.6031842508875811 0.47342474392250194 1.823918561477984 -0.8160180680670559 -0.14355654244935775 0.19235819070824597 -0.5883036699245033 1.1578767199890103 -0.09301959925446318 -1.0334166927679207 0.8132527485876999 -1.0899666036708064 -0.2367005792127621 0.606614179789691 0.09010871136842127 -0.052669349598113716 -0.9279333856603593 1.626879450032458 1.1228776567431014 -1.299331111638738 0.6708455989096083 -0.011632772651883748 0.3335901743231251 1.974456998002123 -1.0859753185962862 1.032280213323054 0.1026763661629505 0.7831291063878578 -0.24129532217262376 0.09333208040899127 2.017004380776248 -1.2477685194904309 -0.7698237911629672 1.3113845812548122 -1.2913550515137497 0.16574329139023347 -0.9362375083089197 -1.4289449434754256 0.31834647275612604 1.1592903557037915 -0.2946002528895189 -0.17168336817317606 1.0321730647304495 -0.1479345069443508 -0.8118172882840865 -0.45409482832368986 0.14184862163088435 -0.7923214737936372 0.2613998772728505 -0.18893098320963342 -0.10251804451242373 -1.3686813306547567 0.2320344927925856 0.3712371631720305 -0.8731674347913162 1.116973064927331 0.3749503314812844 -0.19606036668180446 -0.8165912169879551 0.7732015865118029 -0.22877665264104818 -2.030964433666108 -0.35972770745117716 -1.2994871387725906 1.152741271506807 1.9141961599458044 0.8030670155445068 -0.003369257612373243 -2.6374969713508762 -1.1678919117463646 1.2848680793495302 1.1126186058880365 -0.8928780800755036 0.6753962124441293 -0.2930783480042225 -0.13393012452595204 1.0992911992700491 1.0593554033581019 0.663411151441461 1.6913895195261706 -2.3045203401142884 1.0502937700419048 -1.3923795257537621 -0.010612619866318874 -0.5468818276204024 1.90656406387855 0.9803324625385815 2.2572938508718816 -0.5566304819175675 1.1799559468113112 2.610313885671283 -0.7444733839759061 -0.42147928765470377 0.5468120849856741 0.8369728749972435 -1.2722502653532837 -2.0914999733931077 1.4048749299534773 -2.001550224005448 1.0579076166974708 -1.3525727563841048 0.7829840182288479 -1.020483089244267 -0.7738720656283749 -0.9420948224090288 1.9746687338663933 0.28940648099510596 0.5443269099839945 1.1194605344456852 -1.298184600353528 -0.5117064601165424 -0.9546967348711138 -1.150200547857268 0.9278021179622482 -1.6675211033064437 -0.8110318698903879 1.3973991811851927 1.7656931197943295 1.99022619724839 -1.931723492573115
-83.65001305937767 -0.9929710999131203 43.30530287697911 -0.9213836611331403 -1.5685587058655404 -0.3746681059303454 1.2401698273170858 0.32530803634595573 -0.31470427438121673 2.082515286426779 1.3967283285426504 1.3971473179595484 0.598448581915235 0.45016848340713744 1.8318046552049985 -0.8138598883718905 -0.13073851853306523 0.19144262519434693 -0.6020909937335559 1.1776890710588075 -0.07165711540819049 -1.0280718562989741 0.8136445773304765 -1.0931004865610787 -0.23285054031584346 0.6268796712222362 0.08292297883559761 -0.059114913740490126 -0.9256724863233794 1.6317519362316157 1.1119446583160266 -1.2862346507920617 0.6628191127786384 0.00699875610429455 0.34796943007329445 1.9690590141236972 -1.0847564499945561 1.028045069150823 0.09312489355742981 0.7918923991755428 -0.23722941194533564 0.09768096323915888 2.0277132636211816 -1.2523672645142592 -0.77203250358582 1.289358822007108 -1.2994386871181658 0.15933582689682105 -0.9393872927333534 -1.43505838966941 0.32923614217065356 1.136897900675022 -0.3010215912046829 -0.17452107164947833 1.019428251904323 -0.16248238298965487 -0.7994429064987274 -0.4446909651774781 0.14919897239487587 -0.8101927704786812 0.2587938933002262 -0.1941366278938145 -0.09970763511237504 -1.3527795830499092 0.24868342574003546 0.37382807270371315 -0.8690771653346835 1.1301630139882721 0.36086813559915776 -0.18220191285584858 -0.8040661975148856 0.7807592441892749 -0.2408244126458631 -2.023662107669718 -0.3820833701718785 -1.3046335795904893 1.148429501149825 1.9128954357957402 0.7945692997216589 0.009923277688250048 -2.6212490185324735 -1.180202260508255 1.2846885734404059 1.09988745344025 -0.896610565013504 0.6655929166336041 -0.28935776253641676 -0.14215922181534804 1.106639842486748 1.0496126721156076 0.6723472800316591 1.671526582367833 -2.326648018591014 1.0442246133558195 -1.3733443221454655 -0.021890756289890866 -0.5308751192179189 1.8950165618695856 0.9841827682397647 2.2489134222036875 -0.5520027085897665 1.1945244201458312 2.616091798822291 -0.7477017689366479 -0.43930346670664544 0.5384586035481899 0.8507413624252256 -1.2932552314851886 -2.0868087006503666 1.4121175985163354 -2.014911995012697 1.05389989648026 -1.3728929960517158 0.8002376630416819 -1.020137310917535 -0.775022472255846 -0.9434241479762425 1.9986505952593658 0.28715849498452556 0.5501800619375781 1.1106344359341478 -1.29858982267038 -0.5100944287507136 -0.9417365576427205 -1.1410047653569038 0.917284373692369 -1.6654624416019195 -0.8219238871824426 1.3780458401719615 1.7700199379118267 2.0005683843122584 -1.9223642124194935
-85.2453775703907 -0.9804371744394302 44.177574291825294 -0.8967562401418957 -1.5986405665175691 -0.37340900324553583 1.2837388569806567 0.3281751149717744 -0.330743853069081 2.059625401527362 1.3773362475502207 1.3702238861901217 0.5786978092696737 0.39910847045178155 1.8405487914464957 -0.7989150075810795 -0.11258681056608034 0.20644844407915916 -0.617042171105008 1.2134161897815574 -0.058593418125189076 -1.0233560375639035 0.8121668018705207 -1.0826453879324933 -0.23923052397001715 0.6597699135619037 0.06078009251579808 -0.06558219574999306 -0.9460687118455068 1.6090011097148322 1.1140272256826458 -1.2622154368020655 0.6515544766508478 0.016216523276049884 0.38361146491611015 1.9497692792471117 -1.121584829999265 1.0361484482708083 0.06290785652481572 0.8028608825697899 -0.2423686223676678 0.10619578121535825 2.0339590447303353 -1.280203807198352 -0.7881173856377884 1.2470912635455418 -1.3061090071729178 0.14270068772984343 -0.9506512351700565 -1.4240791807437319 0.3446985698736517 1.1147660600517708 -0.31885147986788387 -0.2005064463055125 0.9998233678305649 -0.19177573031851727 -0.7656629786588129 -0.43559371349197645 0.15722006907970382 -0.8055385301678465 0.28261836685759756 -0.1925122434905415 -0.1158512141025233 -1.349831289205991 0.2495421619456059 0.3793158362171275 -0.8544135495994595 1.1437268091845654 0.34247222168891844 -0.16861239772846195 -0.7778573209265186 0.7966863381992455 -0.2422615271359161 -1.9903023965463178 -0.41099358657698554 -1.296193280045352 1.138460519891074 1.9076127113595585 0.7586447992040661 0.016201822361078488 -2.597570460227332 -1.2046995877401518 1.2686071064830224 1.0788660521656548 -0.8903619557791472 0.6496294838828148 -0.31518569599599683 -0.15451524746731266 1.1176077389116135 1.0582161491488848 0.6703135912062878 1.6392515906619956 -2.333783645282973 1.0187841864099318 -1.357163283836588 -0.057922138595823756 -0.48501066574554763 1.886848295952485 0.9691928508891139 2.2256022000098454 -0.5671047370923408 1.2220702529033751 2.6231979703234543 -0.7609075661708973 -0.46451161385989975 0.5310627359766826 0.8597653229792818 -1.3325848481082971 -2.074492162029541 1.4483290203399217 -2.0336316225369977 1.0415449380453532 -1.3884400007065458 0.8199072204691434 -1.030650679597477 -0.7879888393431748 -0.9456920909458041 2.039751472033329 0.27883857752350955 0.5751026218061612 1.10216884334474 -1.2964243325383686 -0.4988779774730834 -0.9108823520059515 -1.1325196426953381 0.9073208352406129 -1.6505248178871017 -0.840754131754786 1.345488142667509 1.7602339843784909 2.011139596156734 -1.9000040940675758
